<?xml version="1.0" standalone="no"?>
<!DOCTYPE svg PUBLIC "-//W3C//DTD SVG 20010904//EN"
 "http://www.w3.org/TR/2001/REC-SVG-20010904/DTD/svg10.dtd">
<svg version="1.0" xmlns="http://www.w3.org/2000/svg"
 width="1280.000000pt" height="826.000000pt" viewBox="0 0 1280.000000 826.000000"
 preserveAspectRatio="xMidYMid meet">
<metadata>
Created by potrace 1.15, written by Peter Selinger 2001-2017
</metadata>
<g transform="translate(0.000000,826.000000) scale(0.100000,-0.100000)"
fill="#000000" stroke="none">
<path d="M6150 8250 c-245 -26 -488 -93 -756 -212 -105 -46 -122 -64 -23 -24
93 38 94 31 3 -18 -83 -44 -209 -126 -277 -179 l-38 -30 27 -28 c37 -39 24
-37 -23 4 l-38 32 26 -35 c14 -19 90 -126 168 -238 l143 -202 36 30 c67 56
199 140 269 169 79 34 304 111 323 111 14 0 12 -63 -15 -500 -24 -382 -24
-382 -43 -375 -49 19 -328 105 -552 169 -666 192 -1291 320 -1882 385 l-165
18 -94 65 c-433 299 -908 466 -1448 508 -135 10 -358 14 -350 6 3 -3 85 -17
184 -31 98 -14 182 -29 185 -32 3 -3 -17 -3 -43 0 -26 4 -110 12 -187 18 -130
11 -140 11 -172 -8 -24 -14 -34 -27 -36 -50 -3 -28 4 -35 93 -99 261 -188 400
-273 583 -354 299 -134 598 -204 917 -216 l150 -6 435 -120 c239 -66 757 -211
1150 -322 393 -112 831 -234 973 -272 l259 -69 -6 -100 c-30 -502 -39 -1865
-17 -2415 22 -564 53 -1030 96 -1457 34 -339 40 -303 -53 -335 -42 -15 -111
-36 -152 -47 -41 -10 -115 -39 -165 -64 -116 -58 -135 -64 -128 -39 9 37 -16
32 -66 -10 -28 -24 -70 -59 -93 -79 -29 -24 -85 -51 -173 -84 -71 -26 -152
-58 -178 -72 -27 -13 -51 -23 -53 -21 -6 6 148 105 197 127 54 24 45 26 -34 5
-115 -30 -212 -90 -267 -166 -16 -21 -55 -56 -89 -79 -33 -22 -82 -64 -108
-94 -44 -48 -53 -53 -103 -60 -88 -10 -196 -43 -263 -78 -34 -17 -65 -33 -69
-35 -4 -2 -3 12 3 30 5 18 9 35 9 37 0 12 -74 -69 -105 -114 -55 -81 -78 -163
-77 -280 0 -254 104 -440 312 -561 350 -204 792 -310 1435 -344 215 -11 555
-12 690 -1 l90 8 -110 3 c-60 1 -157 5 -215 9 l-105 6 175 8 c233 11 438 32
649 68 96 16 176 28 178 25 2 -2 -28 -10 -66 -17 -125 -22 -68 -21 81 1 431
65 791 156 999 252 203 94 360 255 410 420 17 56 21 88 17 167 -3 86 -8 106
-36 164 -54 109 -159 185 -327 237 -38 12 -97 34 -130 50 -55 26 -139 55 -223
76 -28 7 -36 17 -47 49 -30 88 -196 195 -365 235 -47 11 -130 24 -184 30 l-98
10 -62 57 c-33 31 -64 63 -67 72 -10 23 -50 56 -84 69 -56 21 -243 62 -281 62
-63 0 -66 5 -55 101 33 279 43 386 65 674 66 845 96 1681 96 2683 0 336 4 552
9 552 14 0 426 -156 656 -248 497 -199 1059 -446 1672 -733 317 -149 428 -206
521 -269 262 -175 488 -277 745 -334 330 -74 620 -86 729 -30 22 12 28 21 28
49 0 32 -7 40 -72 88 -203 150 -446 297 -653 398 -77 38 -137 69 -133 69 19 0
225 -88 328 -140 124 -64 296 -172 400 -253 100 -77 102 -76 10 13 -317 304
-652 497 -965 556 -110 20 -368 15 -454 -10 l-53 -15 -262 131 c-716 358
-1432 681 -2121 955 -165 66 -323 128 -350 138 l-51 17 -27 432 c-27 406 -41
591 -52 679 -4 31 -2 37 13 37 20 0 167 -76 411 -214 85 -47 158 -85 162 -84
8 4 329 387 329 393 0 3 -41 -24 -91 -61 -50 -36 -92 -64 -94 -62 -2 2 29 55
68 117 39 63 66 116 60 118 -5 2 -19 11 -29 19 -18 14 -17 14 6 3 14 -6 38
-21 53 -32 54 -38 34 -11 -38 50 -236 201 -519 326 -860 378 -122 19 -410 27
-525 15z m3413 -3107 c-7 -2 -19 -2 -25 0 -7 3 -2 5 12 5 14 0 19 -2 13 -5z"/>
<path d="M1665 7526 c17 -15 78 -60 138 -102 367 -259 641 -365 934 -363 166
1 202 10 113 28 -127 25 -412 102 -560 151 -230 77 -459 183 -609 281 -39 26
-42 27 -16 5z"/>
<path d="M2037 7040 c-10 -76 -54 -618 -67 -825 -28 -446 -38 -878 -21 -859 9
10 63 439 87 694 18 197 29 780 16 935 -8 105 -8 108 -15 55z"/>
<path d="M2397 6923 c347 -508 711 -1002 954 -1293 134 -162 249 -293 249
-285 0 11 -360 523 -549 780 -225 306 -718 925 -737 925 -2 0 35 -57 83 -127z"/>
<path d="M1718 6793 c-298 -413 -539 -833 -668 -1163 -39 -100 -112 -331 -107
-337 2 -1 177 325 390 725 213 400 407 764 432 810 24 45 42 82 41 82 -2 0
-42 -53 -88 -117z"/>
<path d="M2755 5120 c-42 -4 11 -6 135 -4 162 2 185 1 110 -5 -104 -9 -609
-26 -1265 -41 -342 -8 -441 -14 -535 -30 -453 -79 -735 -155 -908 -245 -101
-53 -253 -162 -278 -200 -62 -95 147 -163 696 -225 124 -14 187 -25 192 -34
29 -52 113 -148 172 -197 81 -66 225 -145 336 -182 86 -29 377 -107 495 -133
120 -26 339 -24 475 5 134 28 366 106 529 177 128 57 443 216 437 221 -2 2
-34 -8 -72 -23 -78 -29 -384 -134 -392 -134 -3 0 49 31 117 70 127 73 260 159
372 241 37 27 75 49 85 50 11 0 37 7 59 15 l40 14 -45 -5 -45 -4 24 19 c14 10
51 21 85 25 162 17 355 73 519 149 211 98 285 169 229 219 -49 45 -271 121
-497 171 -66 15 -136 31 -155 36 -73 19 64 -2 205 -30 326 -67 485 -137 485
-215 0 -36 -53 -97 -115 -135 -69 -41 -263 -120 -358 -145 -101 -27 -73 -30
44 -5 241 51 367 102 456 184 84 76 100 121 62 169 -58 75 -382 169 -729 213
-137 17 -835 28 -965 14z"/>
<path d="M9648 4792 c62 -78 187 -179 302 -244 79 -44 227 -98 338 -123 147
-33 274 -45 449 -44 162 1 160 3 -67 39 -378 61 -709 180 -953 344 -95 63 -97
64 -69 28z"/>
<path d="M10367 3873 c-15 -186 -34 -441 -43 -568 -18 -284 -28 -833 -14 -790
22 71 81 621 100 930 16 254 9 765 -9 765 -3 0 -19 -152 -34 -337z"/>
<path d="M10737 4068 c444 -648 798 -1121 1097 -1468 145 -169 148 -169 40
-10 -236 347 -588 828 -832 1135 -152 191 -372 455 -378 455 -3 0 30 -51 73
-112z"/>
<path d="M10054 3908 c-353 -500 -578 -914 -706 -1302 -27 -81 -48 -152 -46
-157 2 -5 163 291 358 658 451 848 501 943 498 943 -2 0 -49 -64 -104 -142z"/>
<path d="M11120 2270 c-68 -6 -62 -7 65 -10 l140 -4 -130 -6 c-71 -4 -395 -12
-720 -19 -838 -16 -1021 -29 -1335 -91 -182 -36 -353 -86 -498 -144 -248 -100
-424 -206 -446 -269 -20 -55 57 -99 245 -141 154 -34 639 -95 765 -96 14 0 33
-18 59 -55 82 -119 249 -244 408 -306 110 -42 294 -94 412 -115 74 -14 150
-19 293 -19 215 0 209 -12 -9 -22 -152 -6 -267 5 -452 43 -118 25 -356 97
-444 135 -25 11 -48 17 -50 15 -11 -11 342 -175 457 -213 412 -137 712 -112
1215 102 114 48 468 226 462 231 -2 2 -78 -23 -170 -56 -163 -58 -522 -170
-542 -170 -5 1 35 18 90 39 262 100 531 254 811 463 94 70 106 76 165 82 88
10 237 43 328 73 108 35 349 155 394 196 69 65 46 100 -106 161 -113 45 -252
85 -411 117 -153 32 -203 47 -111 34 112 -16 346 -67 440 -96 179 -55 257
-112 241 -175 -18 -72 -164 -160 -396 -238 -157 -53 -149 -58 23 -17 208 50
294 84 385 154 54 41 102 108 102 143 0 52 -75 99 -240 152 -185 59 -434 102
-705 122 -149 11 -609 11 -735 0z m-2625 -402 c-16 -12 -54 -46 -83 -75 -42
-43 -53 -60 -50 -81 3 -24 11 -30 84 -54 45 -15 140 -39 210 -52 145 -27 128
-34 -29 -11 -114 17 -221 46 -254 70 -16 11 -23 26 -23 51 0 40 50 101 119
146 53 33 69 37 26 6z"/>
<path d="M4235 1339 c-11 -17 1 -21 15 -4 8 9 8 15 2 15 -6 0 -14 -5 -17 -11z"/>
</g>
</svg>
